<?xml version="1.0" encoding="utf-8"?>
<!-- Generator: Adobe Illustrator 25.4.1, SVG Export Plug-In . SVG Version: 6.00 Build 0)  -->
<svg version="1.1" id="Слой_1" xmlns="http://www.w3.org/2000/svg" xmlns:xlink="http://www.w3.org/1999/xlink" x="0px" y="0px"
	 class="w-full h-full" viewBox="0 0 1000 1000" style="enable-background:new 0 0 1000 1000;" xml:space="preserve">
<style type="text/css">
	.st0{fill:#9EA2AB;}
	.st1{fill:#D42527;}
	.st2{fill:#3C3C3B;}
</style>
<path class="st0" d="M283.6,376.3c82.3-58.2,164.6-116.4,246.9-174.6c65.2,58.7,130.3,117.3,195.5,176c0,10.1,0,20.2,0,30.2
	c-65.2-39.7-130.3-79.3-195.5-119c-82.3,39.3-164.6,78.7-246.9,118C283.6,396.7,283.6,386.5,283.6,376.3z"/>
<path class="st0" d="M283.6,418.1c0,12.3,0,24.5,0,36.8c82.3-15.5,164.6-31.1,246.9-46.6c65.2,15.7,130.3,31.3,195.5,47
	c0-12.1,0-24.2,0-36.3c-65.2-35.9-130.3-71.9-195.5-107.8C448.2,346.8,365.9,382.5,283.6,418.1z"/>
<path class="st1" d="M283.6,466c82.3-12,164.6-24,246.9-35.9c65.2,12.1,130.3,24.2,195.5,36.3v34.3c-65.2,7.2-130.3,14.3-195.5,21.5
	c-82.3-7.7-164.6-15.5-246.9-23.2C283.6,488,283.6,477,283.6,466z"/>
<g>
	<path class="st1" d="M70.3,593.8h20.2v56.5l37.3-41.3v-15.2h20.5v96h-20.5v-55.4L90.5,676v13.9H70.3V593.8z"/>
	<path class="st1" d="M166.7,593.8h20.6v38.4H226v-38.4h20.6v96H226v-40.2h-38.6v40.2h-20.6V593.8z"/>
	<path class="st1" d="M264.8,593.8h69v16.9h-49.3v20.5h38.1v17h-38.1V673h50.3v16.9h-70.1V593.8z"/>
	<path class="st1" d="M349.1,593.8h36.8c4.6,0,9,0.6,13.1,1.7c4.1,1.2,7.7,3,10.9,5.5c3.1,2.5,5.6,5.8,7.4,9.8
		c1.8,4,2.7,8.8,2.7,14.4c0,4.9-0.9,9.3-2.7,13.2c-1.8,3.9-4.2,7.2-7.3,9.9c-3.1,2.7-6.8,4.8-11.1,6.3s-8.9,2.2-13.9,2.2H369v33
		h-19.8V593.8z M383.4,640.1c2,0,3.9-0.2,5.9-0.7c2-0.4,3.7-1.2,5.3-2.4c1.6-1.2,2.8-2.7,3.7-4.5c0.9-1.9,1.4-4.2,1.4-7.1
		c0-3.2-0.4-5.8-1.3-7.8c-0.9-2-2.1-3.5-3.7-4.7c-1.6-1.1-3.3-1.8-5.3-2.2c-2-0.4-4-0.5-6.1-0.5H369v29.8H383.4z"/>
	<path class="st1" d="M454.8,610.8h-28.6v-16.9h77.2v16.9h-28.6v79.1h-20V610.8z"/>
	<path class="st2" d="M593.5,683.9c-2.8,1.3-5.6,2.5-8.3,3.5c-2.7,1-5.4,1.9-8.3,2.6c-2.8,0.7-5.8,1.2-8.9,1.6
		c-3.1,0.4-6.4,0.5-10.1,0.5c-8.8,0-16.2-1.3-22.3-3.8c-6.1-2.5-11-6-14.8-10.5c-3.8-4.5-6.5-9.8-8.3-15.9c-1.7-6.1-2.6-12.8-2.6-20
		s1.1-13.8,3.2-19.9c2.1-6.1,5.3-11.3,9.5-15.8c4.2-4.4,9.4-7.9,15.6-10.4c6.2-2.5,13.4-3.7,21.6-3.7c6.7,0,12.5,0.7,17.6,2
		c5.1,1.3,9.9,3,14.5,4.9l-6.1,16.1c-3.2-1.3-6-2.4-8.5-3.1c-2.4-0.8-4.7-1.3-6.7-1.7c-2-0.4-4-0.7-5.7-0.8
		c-1.8-0.1-3.6-0.2-5.5-0.2c-9.1,0-16.2,2.8-21,8.5c-4.9,5.7-7.3,13.7-7.3,24.1c0,11.1,2.5,19.4,7.4,24.8c4.9,5.5,11.9,8.2,20.8,8.2
		c2.6,0,4.9-0.1,7.1-0.4c2.1-0.3,4.2-0.7,6.3-1.2c2.1-0.5,4.3-1.2,6.6-2.1c2.3-0.8,5-1.9,8-3.1L593.5,683.9z"/>
	<path class="st2" d="M628.3,610.8h-28.6v-16.9h77.2v16.9h-28.6v79.1h-20V610.8z"/>
	<path class="st2" d="M687.8,593.8h36.8c4.6,0,9,0.6,13.1,1.7c4.1,1.2,7.7,3,10.9,5.5c3.1,2.5,5.6,5.8,7.4,9.8
		c1.8,4,2.7,8.8,2.7,14.4c0,4.9-0.9,9.3-2.7,13.2c-1.8,3.9-4.2,7.2-7.3,9.9c-3.1,2.7-6.8,4.8-11.1,6.3s-8.9,2.2-13.9,2.2h-16.1v33
		h-19.8V593.8z M722,640.1c2,0,3.9-0.2,5.9-0.7c2-0.4,3.7-1.2,5.3-2.4c1.6-1.2,2.8-2.7,3.7-4.5c0.9-1.9,1.4-4.2,1.4-7.1
		c0-3.2-0.4-5.8-1.3-7.8c-0.9-2-2.1-3.5-3.7-4.7c-1.6-1.1-3.3-1.8-5.3-2.2c-2-0.4-4-0.5-6.1-0.5h-14.3v29.8H722z"/>
	<path class="st2" d="M814.3,692.1c-8.6,0-15.9-1.4-21.8-4.2c-5.9-2.8-10.7-6.5-14.4-11.2c-3.7-4.7-6.3-10-7.9-16
		c-1.6-6-2.4-12.3-2.4-18.6s0.9-12.6,2.6-18.6s4.5-11.3,8.3-16c3.8-4.7,8.6-8.4,14.5-11.2c5.9-2.8,12.9-4.2,21.2-4.2
		c8.6,0,15.9,1.4,21.8,4.2c5.9,2.8,10.7,6.5,14.3,11.2c3.6,4.7,6.3,10,7.9,16c1.6,6,2.5,12.2,2.5,18.6s-0.9,12.6-2.6,18.6
		c-1.7,6-4.5,11.4-8.3,16c-3.8,4.7-8.6,8.4-14.5,11.2C829.7,690.7,822.6,692.1,814.3,692.1z M814.3,674.8c4.4,0,8.3-0.9,11.5-2.6
		s5.8-4.1,7.9-7c2.1-2.9,3.6-6.4,4.6-10.4c1-4,1.5-8.3,1.5-12.8c0-4.5-0.5-8.8-1.5-12.7c-1-3.9-2.5-7.4-4.6-10.4
		c-2.1-3-4.7-5.3-7.9-7c-3.2-1.7-7-2.5-11.5-2.5c-4.4,0-8.3,0.8-11.5,2.5c-3.2,1.7-5.8,4-7.9,7c-2.1,3-3.6,6.4-4.6,10.4
		c-1,4-1.5,8.2-1.5,12.7c0,4.5,0.5,8.8,1.5,12.8c1,4,2.5,7.5,4.6,10.4c2.1,2.9,4.7,5.3,7.9,7S809.9,674.8,814.3,674.8z"/>
	<path class="st2" d="M875.6,593.8h20.2v56.5l37.3-41.3v-15.2h20.5v96h-20.5v-55.4L895.8,676v13.9h-20.2V593.8z M915.2,572
		c3,0,5.6-0.8,7.7-2.5c2.1-1.6,3.5-3.8,4.3-6.6l13.9,4.1c-0.8,3.1-2,5.8-3.6,8.2c-1.6,2.4-3.5,4.3-5.8,5.9c-2.3,1.6-4.8,2.7-7.6,3.5
		c-2.8,0.8-5.7,1.1-8.7,1.1c-3.1,0-6.1-0.4-9-1.1c-2.9-0.8-5.5-1.9-7.9-3.4c-2.4-1.5-4.4-3.4-6.1-5.7c-1.7-2.3-2.9-5-3.6-8.1
		l13.6-4.4c0.9,2.8,2.4,5.1,4.5,6.7C909,571.2,911.8,572,915.2,572z"/>
</g>
<g>
	<path class="st2" d="M75.8,795.7c-3.8-2.1-6.9-5-9-8.7c-2.2-3.7-3.3-7.9-3.3-12.5c0-4.6,1.1-8.8,3.3-12.5c2.2-3.7,5.2-6.6,9.1-8.7
		c3.9-2.1,8.2-3.2,13-3.2c3.7,0,7.1,0.6,10.2,1.9c3.1,1.3,5.7,3.1,7.9,5.6l-4.4,4.3c-3.6-3.8-8.1-5.7-13.4-5.7
		c-3.5,0-6.7,0.8-9.6,2.4c-2.9,1.6-5.1,3.8-6.7,6.6c-1.6,2.8-2.4,5.9-2.4,9.4s0.8,6.6,2.4,9.4c1.6,2.8,3.9,5,6.7,6.6
		c2.9,1.6,6.1,2.4,9.6,2.4c5.3,0,9.8-1.9,13.4-5.7l4.4,4.3c-2.2,2.5-4.8,4.3-7.9,5.6c-3.1,1.3-6.5,1.9-10.3,1.9
		C83.9,798.9,79.6,797.8,75.8,795.7z"/>
	<path class="st2" d="M148.6,756.5h-16.4v41.8h-6.7v-41.8h-16.3v-5.9h39.3V756.5z"/>
	<path class="st2" d="M190.1,755c3.5,3,5.3,7,5.3,12.2s-1.8,9.2-5.3,12.2c-3.5,3-8.4,4.4-14.6,4.4h-11.8v14.5h-6.8v-47.7h18.6
		C181.7,750.6,186.5,752.1,190.1,755z M185.2,775.2c2.3-1.8,3.4-4.5,3.4-7.9c0-3.5-1.1-6.1-3.4-7.9c-2.3-1.8-5.6-2.8-9.9-2.8h-11.6
		v21.4h11.6C179.6,777.9,182.9,777,185.2,775.2z"/>
	<path class="st2" d="M214,795.7c-3.9-2.1-6.9-5-9.1-8.8c-2.2-3.7-3.3-7.9-3.3-12.5c0-4.6,1.1-8.7,3.3-12.5c2.2-3.7,5.2-6.6,9.1-8.8
		c3.9-2.1,8.2-3.2,13-3.2c4.8,0,9.1,1.1,13,3.2c3.9,2.1,6.9,5,9.1,8.7c2.2,3.7,3.3,7.9,3.3,12.5c0,4.6-1.1,8.8-3.3,12.5
		c-2.2,3.7-5.2,6.6-9.1,8.7c-3.9,2.1-8.2,3.2-13,3.2C222.2,798.9,217.9,797.8,214,795.7z M236.5,790.4c2.8-1.6,5-3.8,6.6-6.6
		c1.6-2.8,2.4-5.9,2.4-9.4s-0.8-6.6-2.4-9.4c-1.6-2.8-3.8-5-6.6-6.6s-5.9-2.4-9.4-2.4c-3.5,0-6.7,0.8-9.5,2.4
		c-2.8,1.6-5.1,3.8-6.7,6.6c-1.6,2.8-2.4,5.9-2.4,9.4s0.8,6.6,2.4,9.4c1.6,2.8,3.8,5,6.7,6.6c2.8,1.6,6,2.4,9.5,2.4
		C230.5,792.8,233.7,792,236.5,790.4z"/>
	<path class="st2" d="M263.4,750.6h6.7v36.8l28.2-36.8h6.3v47.7h-6.7v-36.7l-28.3,36.7h-6.3V750.6z M275.2,744.8
		c-2-1.6-3.1-3.9-3.1-6.9h4.8c0,1.8,0.7,3.1,1.9,4.1c1.2,1,2.9,1.5,5,1.5c2,0,3.7-0.5,4.9-1.5c1.2-1,1.9-2.4,1.9-4.1h4.8
		c0,3-1.1,5.2-3.1,6.9c-2,1.6-4.9,2.5-8.6,2.5C280.1,747.3,277.3,746.5,275.2,744.8z"/>
	<path class="st2" d="M346.2,795.7c-3.9-2.1-6.9-5-9.1-8.8c-2.2-3.7-3.3-7.9-3.3-12.5c0-4.6,1.1-8.7,3.3-12.5
		c2.2-3.7,5.2-6.6,9.1-8.8c3.9-2.1,8.2-3.2,13-3.2c4.8,0,9.1,1.1,13,3.2c3.9,2.1,6.9,5,9.1,8.7c2.2,3.7,3.3,7.9,3.3,12.5
		c0,4.6-1.1,8.8-3.3,12.5c-2.2,3.7-5.2,6.6-9.1,8.7c-3.9,2.1-8.2,3.2-13,3.2C354.5,798.9,350.1,797.8,346.2,795.7z M368.7,790.4
		c2.8-1.6,5-3.8,6.6-6.6c1.6-2.8,2.4-5.9,2.4-9.4s-0.8-6.6-2.4-9.4c-1.6-2.8-3.8-5-6.6-6.6s-5.9-2.4-9.4-2.4c-3.5,0-6.7,0.8-9.5,2.4
		c-2.8,1.6-5.1,3.8-6.7,6.6c-1.6,2.8-2.4,5.9-2.4,9.4s0.8,6.6,2.4,9.4c1.6,2.8,3.8,5,6.7,6.6c2.8,1.6,6,2.4,9.5,2.4
		C362.8,792.8,365.9,792,368.7,790.4z"/>
	<path class="st2" d="M404,795.7c-3.8-2.1-6.9-5-9-8.7c-2.2-3.7-3.3-7.9-3.3-12.5c0-4.6,1.1-8.8,3.3-12.5c2.2-3.7,5.2-6.6,9.1-8.7
		c3.9-2.1,8.2-3.2,13-3.2c3.7,0,7.1,0.6,10.2,1.9c3.1,1.3,5.7,3.1,7.9,5.6l-4.4,4.3c-3.6-3.8-8.1-5.7-13.4-5.7
		c-3.5,0-6.7,0.8-9.6,2.4c-2.9,1.6-5.1,3.8-6.7,6.6c-1.6,2.8-2.4,5.9-2.4,9.4s0.8,6.6,2.4,9.4c1.6,2.8,3.9,5,6.7,6.6
		c2.9,1.6,6.1,2.4,9.6,2.4c5.3,0,9.8-1.9,13.4-5.7l4.4,4.3c-2.2,2.5-4.8,4.3-7.9,5.6c-3.1,1.3-6.5,1.9-10.3,1.9
		C412.2,798.9,407.9,797.8,404,795.7z"/>
	<path class="st2" d="M485.6,750.6v47.7h-6.8v-21.3h-27.4v21.3h-6.8v-47.7h6.8v20.5h27.4v-20.5H485.6z"/>
	<path class="st2" d="M508.9,795.7c-3.9-2.1-6.9-5-9.1-8.8c-2.2-3.7-3.3-7.9-3.3-12.5c0-4.6,1.1-8.7,3.3-12.5
		c2.2-3.7,5.2-6.6,9.1-8.8c3.9-2.1,8.2-3.2,13-3.2c4.8,0,9.1,1.1,13,3.2c3.9,2.1,6.9,5,9.1,8.7s3.3,7.9,3.3,12.5
		c0,4.6-1.1,8.8-3.3,12.5c-2.2,3.7-5.2,6.6-9.1,8.7c-3.9,2.1-8.2,3.2-13,3.2C517.1,798.9,512.8,797.8,508.9,795.7z M531.4,790.4
		c2.8-1.6,5-3.8,6.6-6.6c1.6-2.8,2.4-5.9,2.4-9.4s-0.8-6.6-2.4-9.4c-1.6-2.8-3.8-5-6.6-6.6c-2.8-1.6-5.9-2.4-9.4-2.4
		c-3.5,0-6.7,0.8-9.5,2.4c-2.8,1.6-5.1,3.8-6.7,6.6c-1.6,2.8-2.4,5.9-2.4,9.4s0.8,6.6,2.4,9.4c1.6,2.8,3.8,5,6.7,6.6
		c2.8,1.6,6,2.4,9.5,2.4C525.4,792.8,528.6,792,531.4,790.4z"/>
	<path class="st2" d="M595.3,777.7c1.7,2,2.5,4.5,2.5,7.6c0,4.1-1.5,7.3-4.5,9.6c-3,2.3-7.4,3.4-13.2,3.4h-21.8v-47.7h20.5
		c5.2,0,9.3,1.1,12.2,3.2c2.9,2.1,4.4,5.1,4.4,9.1c0,2.6-0.6,4.8-1.9,6.6c-1.3,1.8-3.1,3.2-5.5,4.1
		C591.2,774.4,593.6,775.7,595.3,777.7z M565,771.6h13.3c3.3,0,5.9-0.7,7.6-2c1.7-1.3,2.6-3.2,2.6-5.8s-0.9-4.5-2.7-5.8
		c-1.8-1.3-4.3-2-7.6-2H565V771.6z M590.9,784.8c0-2.7-0.9-4.7-2.8-6c-1.8-1.3-4.6-1.9-8.2-1.9H565v16.2h14.9
		C587.3,792.9,590.9,790.2,590.9,784.8z"/>
	<path class="st2" d="M640.2,786.4h-25.4l-5.2,11.9h-7l21.6-47.7h6.7l21.7,47.7h-7.2L640.2,786.4z M637.8,780.9l-10.3-23.4
		l-10.3,23.4H637.8z"/>
	<path class="st2" d="M691.3,756.5h-16.4v41.8h-6.7v-41.8h-16.3v-5.9h39.3V756.5z"/>
	<path class="st2" d="M734.2,792.4v5.9h-34.6v-47.7h33.7v5.9h-26.9v14.7h23.9v5.8h-23.9v15.4H734.2z"/>
	<path class="st2" d="M783.9,750.6v47.7h-6.7v-41.8h-21.1l-0.5,14c-0.2,6.6-0.8,11.9-1.6,16c-0.8,4.1-2.2,7.2-4,9.2
		c-1.8,2.1-4.3,3.1-7.4,3.1c-1.4,0-2.8-0.2-4.3-0.5l0.5-6.1c0.7,0.2,1.5,0.3,2.2,0.3c2,0,3.5-0.8,4.7-2.4c1.2-1.6,2.1-3.9,2.7-7.1
		c0.6-3.1,1-7.3,1.2-12.4l0.8-20.1H783.9z"/>
	<path class="st2" d="M832.7,771.1c3,2.5,4.5,6.3,4.5,11.2c0,5.2-1.6,9.2-4.9,11.9c-3.2,2.7-7.9,4.1-13.9,4.1h-19.7v-47.7h6.7v16.6
		h14.2C825.4,767.2,829.7,768.5,832.7,771.1z M827.3,790.3c2.1-1.8,3.2-4.4,3.2-7.8c0-6.5-4.1-9.8-12.3-9.8h-12.7v20.3h12.7
		C822.1,792.9,825.2,792,827.3,790.3z"/>
	<path class="st2" d="M888.4,750.6v47.7h-6.8v-21.3h-27.4v21.3h-6.8v-47.7h6.8v20.5h27.4v-20.5H888.4z"/>
	<path class="st2" d="M911.7,795.7c-3.9-2.1-6.9-5-9.1-8.8c-2.2-3.7-3.3-7.9-3.3-12.5c0-4.6,1.1-8.7,3.3-12.5
		c2.2-3.7,5.2-6.6,9.1-8.8c3.9-2.1,8.2-3.2,13-3.2c4.8,0,9.1,1.1,13,3.2c3.9,2.1,6.9,5,9.1,8.7s3.3,7.9,3.3,12.5
		c0,4.6-1.1,8.8-3.3,12.5c-2.2,3.7-5.2,6.6-9.1,8.7c-3.9,2.1-8.2,3.2-13,3.2C919.9,798.9,915.6,797.8,911.7,795.7z M934.2,790.4
		c2.8-1.6,5-3.8,6.6-6.6c1.6-2.8,2.4-5.9,2.4-9.4s-0.8-6.6-2.4-9.4c-1.6-2.8-3.8-5-6.6-6.6c-2.8-1.6-5.9-2.4-9.4-2.4
		c-3.5,0-6.7,0.8-9.5,2.4c-2.8,1.6-5.1,3.8-6.7,6.6c-1.6,2.8-2.4,5.9-2.4,9.4s0.8,6.6,2.4,9.4c1.6,2.8,3.8,5,6.7,6.6
		c2.8,1.6,6,2.4,9.5,2.4C928.2,792.8,931.4,792,934.2,790.4z"/>
</g>
</svg>
