<?xml version="1.0" encoding="utf-8"?>
<!-- Generator: Adobe Illustrator 25.4.1, SVG Export Plug-In . SVG Version: 6.00 Build 0)  -->
<svg version="1.1" id="Слой_1" xmlns="http://www.w3.org/2000/svg" xmlns:xlink="http://www.w3.org/1999/xlink" x="0px" y="0px"
	 viewBox="0 0 295.8 199.2" style="enable-background:new 0 0 295.8 199.2;" xml:space="preserve">
<style type="text/css">
	.st0{fill:#9DA1AA;}
	.st1{fill:#D41E27;}
	.st2{fill:#313337;}
	.st3{fill:#303236;}
</style>
<g>
	<g>
		<path class="st0" d="M77.1,56.7c26.7-18.9,53.4-37.8,80.2-56.7c20.9,18.9,41.8,37.8,62.6,56.7v9.7c-20.7-12.4-41.4-24.9-62.1-37.3
			C130.9,41.5,104,53.9,77.1,66.4V56.7z"/>
		<path class="st0" d="M77.1,71v12.3c26.8-5,53.6-10.1,80.4-15.1c20.8,5,41.6,10.1,62.4,15.1V70.6c-20.7-11.3-41.4-22.7-62.1-34
			C130.9,48,104,59.5,77.1,71z"/>
		<path class="st1" d="M77.1,87.1v9.8l81.2,7.4l61.6-7.7v-9.4c-20.7-4-41.4-8-62.2-12C130.9,79.1,104,83.1,77.1,87.1z"/>
	</g>
	<g>
		<path class="st1" d="M9.7,155.2v2.9h-6v-31.4h6v17.6c0,1.4-0.1,3-0.2,4.7c1.1-2.1,2.4-4.2,4-6.3l9.9-12.9v-3.2h6V158h-6v-16.3
			c0-2.8,0-4.7,0.1-5.8c-1.2,2.2-2.5,4.3-4,6.2L9.7,155.2z"/>
		<path class="st1" d="M61.7,158h-6v-13.7H42.9V158h-6v-31.4h6v12.9h12.8v-12.9h6V158z"/>
		<path class="st1" d="M90.9,158H69.1v-31.4h21.6v4.7H75.1v8.5h12.5v4.6H75.1v8.8h15.8V158z"/>
		<path class="st1" d="M102.1,158h-6v-31.4h13.7c3.9,0,6.8,0.9,8.7,2.8s2.8,4,2.8,6.6c0,2.9-1,5.2-3.1,7c-2,1.8-4.6,2.7-7.8,2.7
			h-8.4V158z M102.1,140.7h7.2c1.9,0,3.3-0.4,4.3-1.3c1-0.9,1.5-2,1.5-3.4c0-1.3-0.5-2.4-1.4-3.3c-0.9-0.9-2.6-1.4-4.9-1.4h-6.6
			V140.7z"/>
		<path class="st1" d="M138,158h-6.5v-26.6h-8.9v-4.9h24.3v4.9H138V158z"/>
		<path class="st2" d="M168.8,147.1l5.6,0.6c-0.4,3.1-1.7,5.7-3.9,7.8c-2.2,2-5.2,3.1-8.8,3.1c-3.1,0-5.5-0.7-7.5-2.2
			s-3.4-3.4-4.4-5.9c-1-2.5-1.5-5.2-1.5-8.2c0-4.8,1.2-8.7,3.6-11.7s5.8-4.5,10-4.5c3.3,0,6.1,1,8.3,2.9c2.2,1.9,3.6,4.7,4.2,8.2
			l-5.6,0.6c-1-4.7-3.3-7.1-6.8-7.1c-2.3,0-4,1-5.3,3c-1.3,2-1.9,4.8-1.9,8.6c0,3.8,0.7,6.7,2,8.6s3.1,2.9,5.3,2.9
			c1.8,0,3.3-0.7,4.5-2S168.7,148.9,168.8,147.1z"/>
		<path class="st2" d="M191.2,158h-6.5v-26.6h-8.9v-4.9h24.3v4.9h-8.9V158z"/>
		<path class="st2" d="M209.9,158h-6v-31.4h13.7c3.9,0,6.8,0.9,8.7,2.8c1.9,1.9,2.8,4,2.8,6.6c0,2.9-1,5.2-3.1,7
			c-2,1.8-4.6,2.7-7.8,2.7h-8.4V158z M209.9,140.7h7.2c1.9,0,3.3-0.4,4.3-1.3c1-0.9,1.5-2,1.5-3.4c0-1.3-0.5-2.4-1.4-3.3
			c-0.9-0.9-2.6-1.4-4.9-1.4h-6.6V140.7z"/>
		<path class="st2" d="M246.4,158.5c-4.5,0-7.9-1.6-10.4-4.7c-2.5-3.1-3.7-7-3.7-11.6c0-4.6,1.3-8.4,4-11.5
			c2.6-3.1,6.1-4.6,10.4-4.6c4.4,0,7.8,1.5,10.3,4.6s3.8,6.9,3.8,11.6c0,4.9-1.3,8.8-3.9,11.8C254.2,157,250.7,158.5,246.4,158.5z
			 M246.4,154c2.2,0,4-0.8,5.5-2.5c1.5-1.7,2.3-4.8,2.3-9.2c0-3.6-0.6-6.4-1.9-8.5c-1.2-2-3.2-3.1-5.8-3.1c-5.2,0-7.8,3.9-7.8,11.7
			c0,3.8,0.7,6.7,2,8.6C242.1,153,244,154,246.4,154z"/>
		<path class="st2" d="M272.4,155.2v2.9h-6v-31.4h6v17.6c0,1.4-0.1,3-0.2,4.7c1.1-2.1,2.4-4.2,4-6.3l9.9-12.9v-3.2h6V158h-6v-16.3
			c0-2.8,0-4.7,0.1-5.8c-1.2,2.2-2.5,4.3-4,6.2L272.4,155.2z M272,117.3h3.2c0.3,2,1.7,3,4.3,3c2.5,0,3.9-1,4.2-3h3.2
			c-0.1,1.8-0.8,3.3-2.2,4.5c-1.4,1.2-3.1,1.8-5.4,1.8c-2.1,0-3.9-0.6-5.2-1.7C272.8,120.8,272.1,119.2,272,117.3z"/>
	</g>
	<g>
		<path class="st3" d="M8.7,191.7c-1.1-0.6-2-1.4-2.7-2.5c-0.6-1.1-1-2.3-1-3.6s0.3-2.5,1-3.6c0.6-1.1,1.5-1.9,2.7-2.5
			c1.1-0.6,2.4-0.9,3.9-0.9c1.3,0,2.4,0.2,3.4,0.7c1,0.5,1.8,1.1,2.3,2l-1.5,0.9c-0.5-0.7-1.1-1.2-1.8-1.5c-0.7-0.3-1.5-0.5-2.4-0.5
			c-1,0-2,0.2-2.8,0.7c-0.8,0.4-1.5,1.1-2,1.9c-0.5,0.8-0.7,1.7-0.7,2.8c0,1.1,0.2,2,0.7,2.8c0.5,0.8,1.1,1.4,2,1.9
			c0.8,0.4,1.8,0.7,2.8,0.7c0.9,0,1.7-0.2,2.4-0.5c0.7-0.3,1.3-0.8,1.8-1.5l1.5,0.9c-0.6,0.9-1.4,1.5-2.3,2c-1,0.5-2.1,0.7-3.3,0.7
			C11.1,192.6,9.8,192.3,8.7,191.7z"/>
		<path class="st3" d="M31.9,180.5h-5.5v12h-2v-12H19v-1.6h12.9V180.5z"/>
		<path class="st3" d="M46,179.6c1.1,0.6,2,1.4,2.6,2.4s0.9,2.3,0.9,3.6c0,1.4-0.3,2.6-0.9,3.6s-1.5,1.9-2.6,2.4
			c-1.1,0.6-2.3,0.9-3.7,0.9c-1.2,0-2.2-0.2-3.2-0.7c-0.9-0.5-1.7-1.1-2.3-2v7.6h-2v-18.6h1.9v2.7c0.6-0.9,1.4-1.6,2.3-2.1
			c1-0.5,2.1-0.7,3.3-0.7C43.6,178.7,44.9,179,46,179.6z M44.9,190.3c0.8-0.4,1.5-1.1,1.9-1.9c0.5-0.8,0.7-1.7,0.7-2.8
			c0-1-0.2-2-0.7-2.8c-0.5-0.8-1.1-1.4-1.9-1.9c-0.8-0.4-1.7-0.7-2.8-0.7c-1,0-2,0.2-2.8,0.7c-0.8,0.4-1.5,1.1-1.9,1.9
			c-0.5,0.8-0.7,1.7-0.7,2.8c0,1,0.2,2,0.7,2.8c0.5,0.8,1.1,1.4,1.9,1.9s1.7,0.7,2.8,0.7C43.1,190.9,44.1,190.7,44.9,190.3z"/>
		<path class="st3" d="M55.9,191.7c-1.1-0.6-2-1.4-2.6-2.5c-0.6-1.1-1-2.2-1-3.6s0.3-2.5,1-3.6c0.6-1.1,1.5-1.9,2.6-2.5
			c1.1-0.6,2.4-0.9,3.8-0.9c1.4,0,2.7,0.3,3.8,0.9c1.1,0.6,2,1.4,2.6,2.5s1,2.2,1,3.6s-0.3,2.5-1,3.6s-1.5,1.9-2.6,2.5
			c-1.1,0.6-2.4,0.9-3.8,0.9C58.3,192.6,57.1,192.3,55.9,191.7z M62.5,190.3c0.8-0.4,1.5-1.1,1.9-1.9s0.7-1.7,0.7-2.8
			c0-1-0.2-2-0.7-2.8s-1.1-1.4-1.9-1.9c-0.8-0.4-1.7-0.7-2.8-0.7c-1,0-2,0.2-2.8,0.7c-0.8,0.4-1.5,1.1-1.9,1.9
			c-0.5,0.8-0.7,1.7-0.7,2.8c0,1,0.2,2,0.7,2.8c0.5,0.8,1.1,1.4,1.9,1.9c0.8,0.4,1.7,0.7,2.8,0.7C60.7,190.9,61.7,190.7,62.5,190.3z
			"/>
		<path class="st3" d="M71.3,178.8h2v10.8l9.7-10.8h1.7v13.6h-2v-10.8L73,192.4h-1.8V178.8z M74.9,176c-0.7-0.6-1.1-1.4-1.1-2.5h1.4
			c0,0.7,0.3,1.2,0.8,1.6c0.5,0.4,1.1,0.6,1.9,0.6s1.4-0.2,1.9-0.6s0.8-0.9,0.8-1.6H82c0,1.1-0.4,1.9-1.1,2.5
			c-0.7,0.6-1.7,0.9-3,0.9C76.6,176.9,75.6,176.6,74.9,176z"/>
		<path class="st3" d="M99.7,191.7c-1.1-0.6-2-1.4-2.6-2.5c-0.6-1.1-1-2.2-1-3.6s0.3-2.5,1-3.6c0.6-1.1,1.5-1.9,2.6-2.5
			c1.1-0.6,2.4-0.9,3.8-0.9c1.4,0,2.7,0.3,3.8,0.9c1.1,0.6,2,1.4,2.6,2.5s1,2.2,1,3.6s-0.3,2.5-1,3.6s-1.5,1.9-2.6,2.5
			c-1.1,0.6-2.4,0.9-3.8,0.9C102.1,192.6,100.8,192.3,99.7,191.7z M106.3,190.3c0.8-0.4,1.5-1.1,1.9-1.9c0.5-0.8,0.7-1.7,0.7-2.8
			c0-1-0.2-2-0.7-2.8c-0.5-0.8-1.1-1.4-1.9-1.9c-0.8-0.4-1.7-0.7-2.8-0.7c-1,0-2,0.2-2.8,0.7c-0.8,0.4-1.5,1.1-1.9,1.9
			s-0.7,1.7-0.7,2.8c0,1,0.2,2,0.7,2.8s1.1,1.4,1.9,1.9s1.7,0.7,2.8,0.7C104.5,190.9,105.4,190.7,106.3,190.3z"/>
		<path class="st3" d="M117.3,191.7c-1.1-0.6-2-1.4-2.7-2.5s-1-2.3-1-3.6s0.3-2.5,1-3.6s1.5-1.9,2.7-2.5c1.1-0.6,2.4-0.9,3.8-0.9
			c1.3,0,2.4,0.2,3.4,0.7c1,0.5,1.8,1.1,2.3,2l-1.5,0.9c-0.5-0.7-1.1-1.2-1.8-1.5c-0.7-0.3-1.5-0.5-2.4-0.5c-1,0-2,0.2-2.8,0.7
			c-0.8,0.4-1.5,1.1-2,1.9s-0.7,1.7-0.7,2.8c0,1.1,0.2,2,0.7,2.8s1.1,1.4,2,1.9c0.8,0.4,1.8,0.7,2.8,0.7c0.9,0,1.7-0.2,2.4-0.5
			c0.7-0.3,1.3-0.8,1.8-1.5l1.5,0.9c-0.6,0.9-1.4,1.5-2.3,2c-1,0.5-2.1,0.7-3.3,0.7C119.7,192.6,118.4,192.3,117.3,191.7z"/>
		<path class="st3" d="M130.6,178.8h2v6h9.1v-6h2v13.6h-2v-6h-9.1v6h-2V178.8z"/>
		<path class="st3" d="M151.4,191.7c-1.1-0.6-2-1.4-2.6-2.5s-1-2.2-1-3.6s0.3-2.5,1-3.6s1.5-1.9,2.6-2.5c1.1-0.6,2.4-0.9,3.8-0.9
			c1.4,0,2.7,0.3,3.8,0.9c1.1,0.6,2,1.4,2.6,2.5s1,2.2,1,3.6s-0.3,2.5-1,3.6s-1.5,1.9-2.6,2.5c-1.1,0.6-2.4,0.9-3.8,0.9
			C153.8,192.6,152.5,192.3,151.4,191.7z M158,190.3c0.8-0.4,1.5-1.1,1.9-1.9c0.5-0.8,0.7-1.7,0.7-2.8c0-1-0.2-2-0.7-2.8
			c-0.5-0.8-1.1-1.4-1.9-1.9c-0.8-0.4-1.7-0.7-2.8-0.7c-1,0-2,0.2-2.8,0.7c-0.8,0.4-1.5,1.1-1.9,1.9s-0.7,1.7-0.7,2.8
			c0,1,0.2,2,0.7,2.8s1.1,1.4,1.9,1.9s1.7,0.7,2.8,0.7C156.2,190.9,157.2,190.7,158,190.3z"/>
		<path class="st3" d="M179,188.7c0,1.2-0.5,2.1-1.4,2.7c-0.9,0.6-2.3,1-4.2,1h-6.6v-13.6h6.4c1.7,0,3,0.3,3.9,0.9
			c0.9,0.6,1.4,1.5,1.4,2.6c0,0.7-0.2,1.4-0.6,1.9c-0.4,0.5-1,0.9-1.8,1.2C178,185.8,179,186.9,179,188.7z M168.7,184.9h4.4
			c1.1,0,2-0.2,2.6-0.6s0.9-1,0.9-1.7s-0.3-1.3-0.9-1.7c-0.6-0.4-1.5-0.6-2.6-0.6h-4.4V184.9z M176.1,190.4c0.6-0.4,0.9-1,0.9-1.8
			s-0.3-1.4-0.9-1.8c-0.6-0.4-1.5-0.6-2.7-0.6h-4.8v4.7h4.6C174.5,191,175.5,190.8,176.1,190.4z"/>
		<path class="st3" d="M192.9,180.1c1,0.9,1.5,2.2,1.5,3.9v8.4h-1.9v-2.1c-0.4,0.7-1.1,1.3-1.9,1.7c-0.9,0.4-1.9,0.6-3,0.6
			c-1.6,0-2.9-0.4-3.9-1.1c-1-0.7-1.4-1.7-1.4-2.9c0-1.2,0.4-2.1,1.3-2.8s2.3-1.1,4.3-1.1h4.6v-0.8c0-1.2-0.3-2.1-1-2.7
			s-1.7-0.9-3.1-0.9c-0.9,0-1.8,0.1-2.7,0.4c-0.8,0.3-1.6,0.7-2.2,1.2l-0.9-1.4c0.7-0.6,1.6-1,2.6-1.4c1-0.3,2.1-0.5,3.3-0.5
			C190.4,178.7,191.9,179.2,192.9,180.1z M190.7,190.4c0.8-0.5,1.4-1.2,1.8-2.1v-2.2h-4.6c-2.5,0-3.7,0.8-3.7,2.4
			c0,0.8,0.3,1.4,1,1.9c0.6,0.5,1.5,0.7,2.7,0.7C189,191.1,189.9,190.9,190.7,190.4z"/>
		<path class="st3" d="M209.8,180.5h-5.5v12h-2v-12h-5.5v-1.6h12.9V180.5z"/>
		<path class="st3" d="M224.7,186.2h-12.1c0.1,1.4,0.7,2.6,1.7,3.4s2.4,1.3,4,1.3c0.9,0,1.7-0.2,2.5-0.5c0.8-0.3,1.4-0.7,2-1.3
			l1.1,1.2c-0.6,0.7-1.4,1.3-2.4,1.7c-1,0.4-2,0.6-3.2,0.6c-1.5,0-2.8-0.3-4-0.9c-1.1-0.6-2-1.4-2.7-2.5c-0.6-1.1-1-2.2-1-3.6
			s0.3-2.5,0.9-3.6c0.6-1.1,1.5-1.9,2.5-2.5c1.1-0.6,2.3-0.9,3.6-0.9c1.3,0,2.5,0.3,3.6,0.9c1.1,0.6,1.9,1.4,2.5,2.4
			c0.6,1,0.9,2.2,0.9,3.6L224.7,186.2z M214.2,181.6c-0.9,0.8-1.5,1.9-1.6,3.3h10.3c-0.1-1.3-0.7-2.4-1.6-3.3
			c-0.9-0.8-2.1-1.3-3.5-1.3C216.3,180.3,215.1,180.7,214.2,181.6z"/>
		<path class="st3" d="M240.6,178.8v13.6h-2v-12h-7l-0.2,3.4c-0.1,2.8-0.5,5-1,6.5c-0.6,1.5-1.5,2.3-3,2.3c-0.4,0-0.9-0.1-1.4-0.2
			l0.1-1.6c0.3,0.1,0.6,0.1,0.7,0.1c0.8,0,1.3-0.3,1.7-1c0.4-0.7,0.6-1.5,0.8-2.4s0.2-2.2,0.3-3.8l0.2-4.9H240.6z"/>
		<path class="st3" d="M256.6,184.8c0.9,0.7,1.4,1.8,1.4,3.2c0,1.4-0.5,2.6-1.5,3.3s-2.5,1.2-4.4,1.1l-5.9,0v-13.6h2v4.8l4.3,0.1
			C254.3,183.7,255.7,184,256.6,184.8z M255,190.3c0.7-0.5,1-1.3,1-2.3c0-1-0.3-1.7-1-2.2c-0.7-0.5-1.7-0.7-3.1-0.8l-3.8-0.1v6.1
			l3.8,0.1C253.3,191.1,254.3,190.8,255,190.3z"/>
		<path class="st3" d="M261.8,178.8h2v6h9.1v-6h2v13.6h-2v-6h-9.1v6h-2V178.8z"/>
		<path class="st3" d="M282.6,191.7c-1.1-0.6-2-1.4-2.7-2.5c-0.6-1.1-1-2.2-1-3.6s0.3-2.5,1-3.6c0.6-1.1,1.5-1.9,2.7-2.5
			c1.1-0.6,2.4-0.9,3.8-0.9c1.4,0,2.7,0.3,3.8,0.9c1.1,0.6,2,1.4,2.6,2.5s1,2.2,1,3.6s-0.3,2.5-1,3.6s-1.5,1.9-2.6,2.5
			c-1.1,0.6-2.4,0.9-3.8,0.9C285,192.6,283.7,192.3,282.6,191.7z M289.1,190.3c0.8-0.4,1.5-1.1,1.9-1.9c0.5-0.8,0.7-1.7,0.7-2.8
			c0-1-0.2-2-0.7-2.8c-0.5-0.8-1.1-1.4-1.9-1.9c-0.8-0.4-1.7-0.7-2.8-0.7c-1,0-2,0.2-2.8,0.7c-0.8,0.4-1.5,1.1-1.9,1.9
			s-0.7,1.7-0.7,2.8c0,1,0.2,2,0.7,2.8s1.1,1.4,1.9,1.9s1.7,0.7,2.8,0.7C287.4,190.9,288.3,190.7,289.1,190.3z"/>
	</g>
</g>
</svg>
